<?xml version="1.0" standalone="no"?>
<!DOCTYPE svg PUBLIC "-//W3C//DTD SVG 20010904//EN"
 "http://www.w3.org/TR/2001/REC-SVG-20010904/DTD/svg10.dtd">
<svg version="1.0" xmlns="http://www.w3.org/2000/svg"
 width="225.000000pt" height="225.000000pt" viewBox="0 0 225.000000 225.000000"
 preserveAspectRatio="xMidYMid meet">
<metadata>
Created by potrace 1.14, written by Peter Selinger 2001-2017
</metadata>
<g transform="translate(0.000000,225.000000) scale(0.100000,-0.100000)"
fill="#000000" stroke="none">
<path d="M1551 2235 c-66 -19 -156 -63 -227 -113 -65 -46 -1010 -1145 -1048
-1219 -61 -122 -73 -281 -27 -376 47 -97 162 -179 316 -227 87 -27 120 -27
273 0 185 32 241 13 323 -108 103 -152 225 -210 381 -184 83 14 189 60 231
100 70 66 106 196 107 382 1 147 17 335 35 397 11 36 25 60 45 75 58 42 87
142 57 195 -7 12 -24 31 -39 42 -15 12 -37 47 -50 79 -22 55 -23 66 -23 372 0
301 -1 318 -23 385 -56 172 -175 243 -331 200z m-3 -427 c39 -43 42 -68 42
-404 l0 -325 76 2 c46 1 80 -3 87 -10 19 -19 -5 -31 -82 -43 l-71 -10 0 -332
c0 -332 0 -333 -22 -353 -53 -48 -113 -56 -177 -24 -68 35 -66 24 -69 353 l-4
299 -36 -7 c-254 -42 -445 -130 -592 -270 -87 -83 -115 -91 -176 -53 -43 26
-45 62 -6 113 15 20 218 263 452 541 436 517 463 545 531 545 14 0 35 -10 47
-22z"/>
<path d="M1187 1246 c-118 -132 -154 -178 -142 -182 15 -6 295 13 302 20 2 2
2 79 1 171 l-3 168 -158 -177z"/>
</g>
</svg>
